<svg xmlns="http://www.w3.org/2000/svg" viewBox="0.00 0.00 579.00 495.00"><g fill="#f7941d"><path d="  M 143.29 0.00  L 429.19 0.00  L 571.65 246.83  A 0.84 0.83 44.7 0 1 571.66 247.67  L 429.31 494.29  A 0.93 0.91 -74.4 0 1 428.52 494.75  L 143.94 494.75  A 0.94 0.93 -15.0 0 1 143.13 494.29  L 0.90 247.88  A 1.19 1.19 0.0 0 1 0.90 246.68  L 143.29 0.00  Z  M 151.64 13.75  A 0.33 0.33 0.0 0 0 151.35 13.92  L 16.74 247.11  A 0.33 0.33 0.0 0 0 16.74 247.43  L 151.31 480.58  A 0.33 0.33 0.0 0 0 151.60 480.75  L 420.86 480.75  A 0.33 0.33 0.0 0 0 421.15 480.58  L 555.72 247.44  A 0.33 0.33 0.0 0 0 555.72 247.12  L 421.12 13.92  A 0.33 0.33 0.0 0 0 420.83 13.75  L 151.64 13.75  Z"></path><path d="  M 159.59 27.25  L 412.88 27.25  A 0.55 0.55 0.0 0 1 413.36 27.52  L 540.07 246.99  A 0.55 0.55 0.0 0 1 540.07 247.55  L 413.38 466.98  A 0.55 0.55 0.0 0 1 412.90 467.25  L 159.55 467.25  A 0.55 0.55 0.0 0 1 159.07 466.98  L 32.39 247.56  A 0.55 0.55 0.0 0 1 32.39 247.00  L 159.11 27.52  A 0.55 0.55 0.0 0 1 159.59 27.25  Z  M 172.37 49.25  A 0.55 0.55 0.0 0 0 171.89 49.53  L 57.89 247.01  A 0.55 0.55 0.0 0 0 57.89 247.55  L 171.87 444.98  A 0.55 0.55 0.0 0 0 172.35 445.25  L 400.11 445.25  A 0.55 0.55 0.0 0 0 400.59 444.98  L 514.57 247.55  A 0.55 0.55 0.0 0 0 514.57 247.00  L 400.56 49.53  A 0.55 0.55 0.0 0 0 400.08 49.25  L 172.37 49.25  Z"></path></g><path fill="#fcb614" d="  M 213.75 197.47  Q 258.58 197.56 303.41 197.49  Q 308.35 197.48 310.73 196.21  C 320.28 191.16 315.79 178.02 305.03 178.01  Q 270.25 177.99 235.51 178.01  A 0.51 0.51 0.0 0 1 235.00 177.50  L 235.00 158.27  A 0.51 0.51 0.0 0 1 235.51 157.76  Q 266.93 157.72 298.28 157.75  Q 310.59 157.75 315.53 159.32  C 343.06 168.03 342.40 207.50 314.91 216.22  Q 310.91 217.49 304.31 217.49  Q 249.00 217.51 193.77 217.50  A 0.52 0.52 0.0 0 1 193.25 216.98  L 193.25 118.51  Q 193.25 118.01 193.75 118.01  Q 246.90 117.98 299.99 118.00  Q 314.26 118.00 319.95 118.83  C 359.28 124.58 386.24 162.84 377.73 202.14  Q 371.59 230.51 346.35 246.99  Q 345.87 247.29 346.35 247.60  Q 367.15 260.97 375.22 283.40  C 389.62 323.48 364.75 366.81 323.59 375.09  Q 316.73 376.47 303.69 376.48  Q 248.71 376.52 193.75 376.49  A 0.50 0.50 0.0 0 1 193.25 375.99  L 193.25 277.51  A 0.50 0.50 0.0 0 1 193.75 277.01  Q 248.32 276.98 303.09 277.02  Q 310.84 277.02 315.12 278.37  C 342.80 287.04 342.82 326.74 314.93 335.37  Q 310.53 336.73 302.31 336.74  Q 268.89 336.76 235.51 336.75  A 0.52 0.51 0.6 0 1 235.00 336.24  L 235.00 317.29  Q 235.00 316.77 235.52 316.77  Q 270.80 316.71 305.99 316.76  C 313.93 316.77 318.47 307.53 313.91 301.07  C 311.32 297.41 307.72 297.00 303.03 297.00  Q 258.38 297.00 213.76 297.00  A 0.51 0.51 0.0 0 0 213.25 297.51  L 213.25 355.99  A 0.51 0.51 0.0 0 0 213.76 356.50  Q 255.79 356.49 297.99 356.51  Q 312.50 356.52 317.95 355.55  C 353.64 349.23 371.14 308.51 350.00 278.41  Q 339.17 263.00 320.61 258.68  Q 314.43 257.25 301.66 257.25  Q 247.69 257.25 193.76 257.25  A 0.51 0.51 0.0 0 1 193.25 256.74  L 193.25 237.79  Q 193.25 237.26 193.78 237.26  Q 247.03 237.22 300.24 237.25  Q 314.48 237.26 320.16 236.04  C 341.98 231.33 357.96 212.33 359.10 189.90  C 360.29 166.58 344.14 145.23 321.46 139.64  Q 315.95 138.28 305.78 138.27  Q 259.74 138.22 213.76 138.26  A 0.51 0.51 0.0 0 0 213.25 138.77  L 213.25 196.98  Q 213.25 197.47 213.75 197.47  Z"></path></svg>