<svg xmlns="http://www.w3.org/2000/svg" viewBox="0.00 0.00 569.00 810.00"><g stroke-width="2.00" fill="none" stroke-linecap="butt"><path stroke="#8c631a" d="  M 38.18 0.00  C 43.92 21.51 38.18 43.39 25.96 61.45  Q 15.20 77.38 0.00 89.15"></path><path stroke="#24272a" d="  M 109.42 0.00  Q 113.93 6.93 121.95 10.78  Q 150.76 24.59 181.94 20.76  C 200.83 18.44 217.32 10.47 234.50 3.00  Q 236.58 2.09 241.81 0.87  Q 242.39 0.74 241.94 0.35  L 241.55 0.00"></path><path stroke="#24272a" d="  M 265.80 0.00  Q 282.04 4.91 297.86 9.83  C 310.30 13.70 321.29 19.53 321.00 34.51  Q 320.81 43.64 316.44 58.81  Q 312.56 72.22 310.61 78.34  Q 304.21 98.35 289.81 115.81  C 267.90 142.38 252.76 160.98 234.96 186.72  C 226.98 198.25 217.48 213.53 217.40 228.39  C 217.39 231.28 218.59 233.75 219.86 236.28"></path><path stroke="#8c8d8f" d="  M 219.86 236.28  C 176.94 265.49 138.64 305.15 120.04 354.32  C 104.75 394.76 103.26 435.73 110.45 478.25  C 113.62 496.96 114.41 512.49 111.79 530.51  C 103.17 589.92 72.15 644.74 47.02 698.97  Q 38.05 718.32 36.18 725.23  C 29.04 751.58 20.88 779.34 0.00 798.46"></path><path stroke="#986e26" d="  M 401.81 0.00  C 385.53 83.29 326.01 152.73 261.74 204.54"></path><path stroke="#98999a" d="  M 261.74 204.54  Q 241.24 221.26 219.86 236.28"></path><path stroke="#ffd58b" d="  M 55.97 704.27  C 68.81 663.85 96.75 631.74 124.32 598.58  C 138.46 581.57 159.58 557.14 159.63 535.31  Q 159.64 531.92 158.06 524.30  C 145.39 463.36 149.05 403.55 188.70 352.72  C 200.25 337.91 213.38 324.13 227.48 309.74  C 257.16 279.46 278.02 249.50 261.74 204.54"></path></g><path fill="#181b1e" d="  M 38.18 0.00  L 109.42 0.00  Q 113.93 6.93 121.95 10.78  Q 150.76 24.59 181.94 20.76  C 200.83 18.44 217.32 10.47 234.50 3.00  Q 236.58 2.09 241.81 0.87  Q 242.39 0.74 241.94 0.35  L 241.55 0.00  L 265.80 0.00  Q 282.04 4.91 297.86 9.83  C 310.30 13.70 321.29 19.53 321.00 34.51  Q 320.81 43.64 316.44 58.81  Q 312.56 72.22 310.61 78.34  Q 304.21 98.35 289.81 115.81  C 267.90 142.38 252.76 160.98 234.96 186.72  C 226.98 198.25 217.48 213.53 217.40 228.39  C 217.39 231.28 218.59 233.75 219.86 236.28  C 176.94 265.49 138.64 305.15 120.04 354.32  C 104.75 394.76 103.26 435.73 110.45 478.25  C 113.62 496.96 114.41 512.49 111.79 530.51  C 103.17 589.92 72.15 644.74 47.02 698.97  Q 38.05 718.32 36.18 725.23  C 29.04 751.58 20.88 779.34 0.00 798.46  L 0.00 89.15  Q 15.20 77.38 25.96 61.45  C 38.18 43.39 43.92 21.51 38.18 0.00  Z"></path><g fill="#ffaa16"><path d="  M 0.00 0.00  L 38.18 0.00  C 43.92 21.51 38.18 43.39 25.96 61.45  Q 15.20 77.38 0.00 89.15  L 0.00 0.00  Z"></path><path d="  M 401.81 0.00  L 568.06 0.00  Q 546.38 24.72 526.31 50.81  C 507.86 74.80 487.11 97.27 464.17 117.01  C 441.34 136.65 419.06 151.66 395.41 167.72  C 360.97 191.12 336.59 218.99 328.94 261.08  C 324.93 283.19 324.34 301.48 321.92 329.24  C 319.13 361.15 311.05 391.83 296.87 420.20  C 272.74 468.45 240.26 512.65 202.42 550.67  C 169.90 583.36 134.23 616.85 104.80 647.31  Q 84.10 668.73 55.97 704.27  C 68.81 663.85 96.75 631.74 124.32 598.58  C 138.46 581.57 159.58 557.14 159.63 535.31  Q 159.64 531.92 158.06 524.30  C 145.39 463.36 149.05 403.55 188.70 352.72  C 200.25 337.91 213.38 324.13 227.48 309.74  C 257.16 279.46 278.02 249.50 261.74 204.54  C 326.01 152.73 385.53 83.29 401.81 0.00  Z"></path></g><path fill="#ffffff" d="  M 261.74 204.54  C 278.02 249.50 257.16 279.46 227.48 309.74  C 213.38 324.13 200.25 337.91 188.70 352.72  C 149.05 403.55 145.39 463.36 158.06 524.30  Q 159.64 531.92 159.63 535.31  C 159.58 557.14 138.46 581.57 124.32 598.58  C 96.75 631.74 68.81 663.85 55.97 704.27  Q 56.07 704.58 55.49 705.28  Q 55.10 705.74 54.98 706.24  C 45.61 744.03 28.55 781.18 0.95 808.50  Q 0.68 808.77 0.29 808.75  Q 0.13 808.74 0.00 808.69  L 0.00 798.46  C 20.88 779.34 29.04 751.58 36.18 725.23  Q 38.05 718.32 47.02 698.97  C 72.15 644.74 103.17 589.92 111.79 530.51  C 114.41 512.49 113.62 496.96 110.45 478.25  C 103.26 435.73 104.75 394.76 120.04 354.32  C 138.64 305.15 176.94 265.49 219.86 236.28  Q 241.24 221.26 261.74 204.54  Z"></path><g fill="#303235"><path d="  M 109.42 0.00  L 241.55 0.00  L 241.94 0.35  Q 242.39 0.74 241.81 0.87  Q 236.58 2.09 234.50 3.00  C 217.32 10.47 200.83 18.44 181.94 20.76  Q 150.76 24.59 121.95 10.78  Q 113.93 6.93 109.42 0.00  Z"></path><path d="  M 265.80 0.00  L 401.81 0.00  C 385.53 83.29 326.01 152.73 261.74 204.54  Q 241.24 221.26 219.86 236.28  C 218.59 233.75 217.39 231.28 217.40 228.39  C 217.48 213.53 226.98 198.25 234.96 186.72  C 252.76 160.98 267.90 142.38 289.81 115.81  Q 304.21 98.35 310.61 78.34  Q 312.56 72.22 316.44 58.81  Q 320.81 43.64 321.00 34.51  C 321.29 19.53 310.30 13.70 297.86 9.83  Q 282.04 4.91 265.80 0.00  Z"></path></g></svg>