<svg xmlns="http://www.w3.org/2000/svg" xmlns:xlink="http://www.w3.org/1999/xlink" id="Group_20" data-name="Group 20" width="864.292" height="245.994" viewBox="0 0 864.292 245.994"><defs><clipPath id="clip-path"><rect id="Rectangle_13" data-name="Rectangle 13" width="864.292" height="245.994" fill="none"></rect></clipPath></defs><g id="Group_19" data-name="Group 19" clip-path="url(#clip-path)"><path id="Path_80" data-name="Path 80" d="M185.792,51.69c-.846-5.9-3.272-8.078-8.626-7.578-10.405.97-18.221-3.338-24.35-11.391-.341-.45-.818-.8-1.17-1.239-2.738-3.468-6.234-4.269-10.13-2.47s-5.551.436-7.113-3.333c-3.179-7.674-7.6-14.852-16.081-17.349a66.754,66.754,0,0,1-14.187-6.157C100.422.081,94.962-.444,90.651.357,79.74,2.382,71.589,9.23,64.944,17.908,56.972,28.322,52.076,40.214,48.736,52.743c-1.069,4.007-3.019,6.058-6.961,7.072-5.867,1.508-11.581,3.6-17.41,5.265-4.2,1.2-6.073,3.827-6.623,8.133C12,118.152,6.245,163.092.16,207.986c-.742,5.48,1.064,6.715,5.861,7.587C37.54,221.309,69,227.34,100.495,233.234c12.105,2.265,24.231,4.422,35.512,6.477,1.835-.17,2.8-.159,3.716-.359,22.6-4.9,45.187-9.9,67.812-14.689,3.97-.841,3.338-3.1,2.92-5.9-8.308-55.679-16.67-111.352-24.663-167.078m-78.938-34.8c.73,7.032,1.475,13.295,1.932,19.579a3.742,3.742,0,0,1-1.814,3.016c-6.7,2.26-13.483,4.251-20.46,6.392.557-11.392,9.065-23.959,20.342-28.987m-7.2-7.278c-14.341,8.57-19.99,22.273-23.631,37.267a5.07,5.07,0,0,1-2.808,3.059c-4.924,1.726-9.972,3.1-15.669,4.816C61.462,28.307,84.471,3.65,99.656,9.613m4.732,100.748c-1.145,3.649-3.191,2.653-5.72,2.169-6.054-1.16-12.139-2.49-18.264-2.844a9.353,9.353,0,0,0-9.93,7.015c-1.45,5.012.961,8.77,4.9,11.761,5.719,4.346,12.074,8.105,16.954,13.255,11.937,12.6,13.145,32.313,3.759,47.336-8.172,13.08-24.927,18.656-42.373,13.106-6.716-2.137-12.855-6.2-19.085-9.7-2.694-1.511-3.492-3.978-2.276-7.3,2-5.479,3.449-11.161,5.336-17.441a46.281,46.281,0,0,0,4.028,2.433c5.617,2.611,11.114,5.619,16.965,7.535,3.559,1.165,8.425.687,9.746-3.546a18.778,18.778,0,0,0-.563-11.218c-.991-2.752-3.9-5.129-6.48-6.938-13.846-9.727-20.9-22.4-16.978-39.511,4.156-18.154,15.787-29.863,33.772-33.665,9.005-1.9,18.7-.71,28.08-.557,2.252.038,4.482,1.514,6.878,2.385-3.069,8.945-6.1,17.275-8.747,25.723m13.518-74.15c-.967-6.971-1.85-13.341-2.907-20.954,8.493,3.487,10.98,10.025,13.7,17.4l-10.8,3.554" transform="translate(0 0)" fill="#f2f2f2"></path><path id="Path_81" data-name="Path 81" d="M535.867,83.131c-6.588,2.155-12.326,7.014-18.29,10.889-1.254.814-1.806,2.71-2.681,4.107l-1.482-1.122c.252-4.371.5-8.744.763-13.289H489.49c-9.008,48.359-17.947,96.357-27.04,145.179,9.383,0,18.229.138,27.058-.185,1.028-.038,2.518-2.511,2.846-4.056,1.7-7.969,3.057-16.009,4.584-24.014.907-4.751,1.907-9.485,2.873-14.262,19.436,5.463,32.977,3.558,46.581-6.254,21.865-15.771,33.814-51.882,25.68-77.606-5.162-16.33-19.89-24.724-36.2-19.387m7.8,42.073c-.7,11.376-4.159,23.265-12.072,33.479-6.858,8.852-15.913,11.332-23.878,6.691-1.422-.827-3.081-3.291-2.817-4.648,2.409-12.429,4.741-24.914,8.158-37.085,1.305-4.649,4.933-8.91,8.278-12.654,3.845-4.3,9.075-6.494,14.906-4.17,5.722,2.28,7.086,7.453,7.413,13.007.078,1.321.011,2.651.011,5.38" transform="translate(63.844 11.256)" fill="#f2f2f2"></path><path id="Path_82" data-name="Path 82" d="M366.257,87.181c-10.565-.864-19.771,2.521-27.774,9.351-1.675,1.429-3.308,2.905-6.082,5.347,3.812-20.065,7.355-38.717,11.079-58.315-8.8,0-16.882.2-24.943-.088-3.8-.134-4.832,1.647-5.437,4.863q-8.6,45.8-17.371,91.569c-3.293,17.284-6.626,34.559-10.146,52.908,8.57,0,16.124-.251,23.652.094,4.507.207,6.243-1.421,7.021-5.805,2.781-15.665,5.255-31.442,9.235-46.817,2.119-8.189,6.346-16.127,11.006-23.277,3.934-6.036,11.036-7.719,15.429-5.4,6.083,3.214,5.583,9.122,4.853,14.536-1.242,9.19-3.032,18.308-4.7,27.436-2.344,12.8-4.792,25.585-7.361,39.252,8.806,0,16.9-.182,24.978.082,3.75.122,4.83-1.575,5.429-4.847,3.645-19.938,7.748-39.8,11.025-59.795a79.65,79.65,0,0,0,.584-22.545c-1.416-11.245-9.145-17.625-20.474-18.551" transform="translate(39.427 6.001)" fill="#f2f2f2"></path><path id="Path_83" data-name="Path 83" d="M746.764,83.646c-3.39-.09-5.057,1.062-6.242,4.268-7.562,20.434-15.315,40.8-23.031,61.172-.4,1.053-1.039,2.012-2.115,4.058-.273-2.4-.406-3.521-.525-4.64-2.109-19.975-4.177-39.957-6.4-59.921-.181-1.622-1.36-4.46-2.149-4.486-9.524-.313-19.063-.2-28.892-.2.329,2.347.461,3.654.7,4.941,5.079,27.387,9.636,54.886,15.53,82.1,2.28,10.529-.9,17.928-8.223,24.057-5.593,4.684-12.138,8.244-18.327,12.2a44.227,44.227,0,0,1-5.344,2.471l8.21,24.788c4.911-2.013,9.375-3.482,13.507-5.6,16.875-8.639,28.594-22.782,37.149-38.934,15.33-28.941,29.293-58.606,43.779-87.991,2.8-5.673,5.381-11.45,8.543-18.207-9.6,0-17.89.149-26.171-.072" transform="translate(91.358 11.547)" fill="#f2f2f2"></path><path id="Path_84" data-name="Path 84" d="M478.843,110.027c-4.209-15.583-14.235-25.264-30.369-27.645-16.216-2.394-30.982,1.586-43.325,12.5-17.227,15.235-24.229,35.041-22.9,57.528,1.369,23.211,16.55,36.858,40.979,37.2a52.291,52.291,0,0,0,29.793-9.489c20.507-14.215,32.324-46.033,25.825-70.1m-39.913,49.682c-3.931,5.686-9.6,8.754-16.734,6.726-7.116-2.021-9.086-7.937-9.867-14.457-.2-1.684-.187-3.4-.273-5.131.473-10.714,2.828-20.991,8.217-30.344a31.888,31.888,0,0,1,7.128-8.689c9.033-7.4,20.624-3.257,22.213,8.292,2.168,15.76-1.618,30.494-10.683,43.6" transform="translate(52.75 11.281)" fill="#f2f2f2"></path><path id="Path_85" data-name="Path 85" d="M675.089,109.361c1.46-6.373,2.46-12.852,3.749-20.081H659.49c.171-17.309,8.253-24.073,26.98-22.664,1.634-6.452,3.455-12.994,4.8-19.634.206-1.017-1.561-3.206-2.827-3.632-15.766-5.308-37.294.756-46.581,14.322a78.642,78.642,0,0,0-10.426,23.648c-1.694,6.262-3.674,9.159-10.36,8.191-1.72-.249-5.037,1.083-5.369,2.3-1.675,6.158-2.606,12.517-3.957,19.643h13.458c-5.192,27.52-10.227,54.2-15.4,81.609,8.359,0,15.742-.362,23.07.123,5.177.341,6.767-1.765,7.622-6.48,4.235-23.315,8.916-46.55,13.108-69.873.786-4.378,2.582-5.689,6.712-5.361a66.676,66.676,0,0,0,10.8-.076c1.422-.121,3.749-1.073,3.969-2.035" transform="translate(84.188 5.721)" fill="#f2f2f2"></path><path id="Path_86" data-name="Path 86" d="M292.043,85.276c-17.39-5.25-34.515-5.392-50.239,5-14.976,9.9-21.887,33.825-1.683,49.045,3.924,2.956,8.278,5.331,12.3,8.17,5.808,4.1,7.949,8.665,6.1,13.369-2.227,5.657-7.227,7.369-12.556,6.669-7.789-1.023-15.459-2.957-24.045-4.676-1.639,4.64-3.225,9.9-5.36,14.921-1.6,3.761-.419,5.55,3.083,6.861,15.86,5.929,31.871,6.8,47.757.633,12.653-4.912,20.28-14.241,21.8-28.05,1.487-13.513-5.845-22.135-16.2-29.032-3.782-2.519-8.161-4.386-11.318-7.51-2.247-2.224-4.408-6.355-3.857-9.079.559-2.765,4.14-5.553,7.057-7.013,2.488-1.246,5.967-1.077,8.909-.722,5.006.605,9.936,1.848,15.371,2.916,1.9-5.71,4.022-11.376,5.535-17.2.306-1.178-1.385-3.923-2.65-4.305" transform="translate(29.8 11.288)" fill="#f2f2f2"></path><path id="Path_87" data-name="Path 87" d="M586.584,83.654c-4.1-.172-5.562,1.327-6.269,5.22-3.451,18.988-7.167,37.928-10.791,56.885-2.584,13.528-5.166,27.055-7.933,41.538,8.273,0,15.967-.273,23.626.1,4.549.223,6.19-1.431,6.993-5.79,3.985-21.583,8.3-43.1,12.459-64.656,2.068-10.725,4.042-21.468,6.246-33.2-8.581,0-16.468.233-24.331-.1" transform="translate(77.531 11.547)" fill="#f2f2f2"></path><path id="Path_88" data-name="Path 88" d="M599.535,44.989a16.714,16.714,0,0,0-16.655,16.6c-.142,8.936,5.478,14.784,14.27,14.846,9.844.068,17.082-6.856,17.235-16.485.141-8.974-5.845-15.006-14.849-14.963" transform="translate(80.47 6.211)" fill="#f2f2f2"></path></g></svg>